<svg width="137" height="912" viewBox="0 0 137 912" fill="none" xmlns="http://www.w3.org/2000/svg">
<path d="M3.688 911.076L3.68799 865.212C3.68799 856.961 5.44733 849.439 8.96599 842.644C12.3633 835.849 17.2167 830.511 23.526 826.628C29.714 822.745 36.812 820.804 44.82 820.804C52.828 820.804 59.9867 822.745 66.296 826.628C72.6053 830.511 77.5193 835.849 81.038 842.644C84.4353 849.439 86.134 856.961 86.134 865.212L86.134 886.506L134 886.506L134 911.076L3.688 911.076ZM62.838 864.484C62.838 858.417 61.0787 853.685 57.56 850.288C54.0413 846.769 49.7947 845.01 44.82 845.01C39.8453 845.01 35.6593 846.769 32.262 850.288C28.7433 853.685 26.984 858.417 26.984 864.484L26.984 886.506L62.838 886.506L62.838 864.484ZM3.68799 799.992L3.68799 752.49C3.68799 743.997 5.44732 736.474 8.96598 729.922C12.4846 723.249 17.3987 718.092 23.708 714.452C29.896 710.812 36.9333 708.992 44.82 708.992C53.192 708.992 60.654 711.661 67.206 717C73.6367 722.217 78.308 728.83 81.22 736.838L82.494 737.02L132.544 702.076L134 702.076L134 730.286L85.042 763.956L85.042 775.422L134 775.422L134 799.992L3.68799 799.992ZM62.474 752.672C62.474 747.091 60.7753 742.541 57.378 739.022C53.9807 735.503 49.6733 733.744 44.456 733.744C39.4813 733.744 35.2346 735.443 31.716 738.84C28.1973 742.116 26.438 746.605 26.438 752.308L26.438 775.422L62.474 775.422L62.474 752.672ZM136.912 623.126C136.912 635.866 133.939 647.454 127.994 657.888C121.927 668.202 113.677 676.331 103.242 682.276C92.8073 688.222 81.3413 691.194 68.844 691.194C56.3467 691.194 44.8807 688.222 34.446 682.276C24.0113 676.331 15.8213 668.202 9.87598 657.888C3.80931 647.454 0.775978 635.866 0.775977 623.126C0.775977 610.386 3.80931 598.86 9.87598 588.546C15.8213 578.112 24.0113 569.922 34.446 563.976C44.8806 558.031 56.3466 555.058 68.844 555.058C81.3413 555.058 92.8073 558.031 103.242 563.976C113.677 569.922 121.927 578.112 127.994 588.546C133.939 598.86 136.912 610.386 136.912 623.126ZM113.616 623.126C113.616 615.118 111.735 607.778 107.974 601.104C104.213 594.431 98.9347 589.214 92.14 585.452C85.3453 581.57 77.58 579.628 68.844 579.628C60.108 579.628 52.3426 581.57 45.548 585.452C38.7533 589.214 33.4753 594.431 29.714 601.104C25.9526 607.778 24.072 615.118 24.072 623.126C24.072 631.134 25.9526 638.475 29.714 645.148C33.4753 651.7 38.7533 656.918 45.548 660.8C52.3427 664.562 60.108 666.442 68.844 666.442C77.58 666.442 85.3453 664.562 92.14 660.8C98.9347 656.918 104.213 651.7 107.974 645.148C111.735 638.475 113.616 631.134 113.616 623.126ZM136.912 500.444C136.912 510.758 134.121 519.797 128.54 527.562C122.837 535.206 115.133 540.545 105.426 543.578L96.144 521.01C101.847 519.433 106.215 516.885 109.248 513.366C112.16 509.848 113.616 505.54 113.616 500.444C113.616 494.863 111.796 490.495 108.156 487.34C104.516 484.064 99.42 482.426 92.868 482.426L3.68798 482.426L3.68798 457.856L92.686 457.856C102.15 457.856 110.219 459.737 116.892 463.498C123.444 467.26 128.419 472.356 131.816 478.786C135.213 485.217 136.912 492.436 136.912 500.444ZM3.68797 430.127L3.68797 347.499L26.984 347.499L26.984 405.557L57.196 405.557L57.196 353.323L80.492 353.323L80.492 405.557L110.704 405.557L110.704 347.499L134 347.499L134 430.127L3.68797 430.127ZM136.912 264.099C136.912 276.717 133.939 288.244 127.994 298.679C121.927 309.113 113.737 317.364 103.424 323.431C92.9893 329.376 81.4626 332.349 68.844 332.349C56.2253 332.349 44.7593 329.376 34.446 323.431C24.0113 317.364 15.8213 309.113 9.87597 298.679C3.8093 288.244 0.775962 276.717 0.775961 264.099C0.775961 244.443 7.87396 228.184 22.07 215.323L38.814 232.613C28.986 240.985 24.072 251.419 24.072 263.917C24.072 272.046 25.9526 279.447 29.714 286.121C33.354 292.794 38.5713 298.072 45.366 301.955C52.1606 305.716 59.9866 307.597 68.844 307.597C77.7013 307.597 85.5273 305.716 92.322 301.955C99.1166 298.072 104.395 292.794 108.156 286.121C111.796 279.447 113.616 272.046 113.616 263.917C113.616 250.206 107.913 238.74 96.508 229.519L113.07 212.047C120.835 218.477 126.781 226.121 130.906 234.979C134.91 243.715 136.912 253.421 136.912 264.099ZM26.984 162.907L26.984 199.307L3.68796 199.307L3.68796 101.937L26.984 101.937L26.984 138.337L134 138.337L134 162.907L26.984 162.907ZM136.912 44.7659C136.912 56.1713 133.697 66.2419 127.266 74.9779C120.835 83.7139 111.735 89.8413 99.966 93.3599L90.866 70.2459C97.782 68.4259 103.303 65.3319 107.428 60.9639C111.553 56.5959 113.616 51.1359 113.616 44.5839C113.616 39.1239 112.281 34.4526 109.612 30.5699C106.821 26.6873 102.999 24.7459 98.146 24.7459C93.2926 24.7459 89.3493 26.6266 86.316 30.3879C83.1613 34.0279 79.8246 40.5799 76.306 50.0439L73.394 58.0519C70.482 66.4239 66.0533 73.5826 60.108 79.5279C54.0413 85.4733 46.458 88.4459 37.358 88.4459C30.5633 88.4459 24.3753 86.6866 18.794 83.1679C13.2126 79.6493 8.84462 74.6746 5.68995 68.2439C2.41395 61.8133 0.775952 54.5333 0.775952 46.404C0.775951 34.6346 3.56662 25.3526 9.14795 18.5579C14.608 11.7633 21.0386 7.09194 28.44 4.54394L37.54 26.2019C33.536 27.5366 30.1993 29.9026 27.53 33.2999C24.7393 36.5759 23.344 40.8226 23.344 46.0399C23.344 51.3786 24.618 55.8073 27.166 59.3259C29.5926 62.7233 32.808 64.4219 36.812 64.4219C40.6946 64.4219 44.0313 62.7839 46.822 59.5079C49.4913 56.2319 52.1 50.8326 54.648 43.3099L57.378 35.1199C61.2606 23.8359 66.4173 15.2213 72.848 9.27594C79.1573 3.20927 87.4686 0.17594 97.782 0.175939C106.275 0.175939 113.495 2.35994 119.44 6.72794C125.264 11.0959 129.632 16.7379 132.544 23.6539C135.456 30.4486 136.912 37.4859 136.912 44.7659Z" fill="url(#paint0_linear_287_15)"/>
<defs>
<linearGradient id="paint0_linear_287_15" x1="74" y1="1132" x2="74" y2="-234" gradientUnits="userSpaceOnUse">
<stop stop-color="white"/>
<stop offset="1" stop-color="white" stop-opacity="0"/>
</linearGradient>
</defs>
</svg>
